# xmcd CD database file
#
# Track frame offsets:
#	150
#	20367
#	46066
#	66666
#	85993
#	102842
#	123222
#	149041
#	164156
#	184805
#	220012
#	242457
#
# Disc length: 3752 seconds
#
# Revision: 2
# Processed by: cddbd v1.4PL0 Copyright (c) Steve Scherf et al.
# Submitted via: CDex 1.50
#
DISCID=ab0ea60c
DTITLE=ΠΟΡΤΟΚΑΛΟΓΛΟΥ_ΠΑΙΧΝΙΔΙΑ ΜΕ ΤΟ ΔΙΑΒΟΛΟ - ΠΑΙΧΝΙΔΙΑ ΜΕ ΤΟΝ ΔΙΑΒΟΛΟ
DYEAR=1900
DGENRE=Blues
TTITLE0=τι εχει μεινει απο την φωτια
TTITLE1=παιχνιδια με τον διαβολο
TTITLE2=που ησουνα φως μου
TTITLE3=δεν ειμαι απο εδω
TTITLE4=ο ταχυδρομος
TTITLE5=δεν μας συγχωρω
TTITLE6=το τρενο
TTITLE7=ποσα χρωστας
TTITLE8=ο τυρρανος μου
TTITLE9=εδω στη φυλακη
TTITLE10=δεν σου χο πει ακομα τιποτα
TTITLE11=no title
EXTD=
EXTT0=
EXTT1=
EXTT2=
EXTT3=
EXTT4=
EXTT5=
EXTT6=
EXTT7=
EXTT8=
EXTT9=
EXTT10=
EXTT11=
PLAYORDER=
